<?xml version="1.0"?>
<svg xmlns="http://www.w3.org/2000/svg" height="512px" version="1.1" viewBox="0 0 512 512" width="512px">
<g id="surface1">
<path d="M 447.042969 151.898438 L 447.042969 0 L 64.957031 0 L 64.957031 151.898438 L 143.214844 151.898438 L 143.214844 111.097656 L 201.234375 111.097656 L 201.234375 329.605469 L 160.496094 329.605469 L 160.496094 413.675781 L 351.503906 413.675781 L 351.503906 329.605469 L 310.765625 329.605469 L 310.765625 111.097656 L 368.785156 111.097656 L 368.785156 151.898438 Z M 447.042969 151.898438 " style=" fill-rule:nonzero;fill-opacity:1;" stroke="#FFFFFF" fill="#FFFFFF"/>
<path d="M 458.839844 405.535156 L 437.648438 426.753906 L 454.636719 443.765625 L 57.363281 443.765625 L 74.351562 426.753906 L 53.160156 405.535156 L 0 458.769531 L 53.160156 512 L 74.351562 490.78125 L 57.363281 473.773438 L 454.636719 473.773438 L 437.648438 490.78125 L 458.839844 512 L 512 458.769531 Z M 458.839844 405.535156 " style=" fill-rule:nonzero;fill-opacity:1;" stroke="#FFFFFF" fill="#FFFFFF"/>
</g>
</svg>
