<?xml version="1.0"?>
<svg xmlns="http://www.w3.org/2000/svg" height="512px" version="1.1" viewBox="0 1 511 511.99999" width="512px">
<g id="surface1">
<path d="M 512.238281 25.925781 L 130.152344 25.925781 L 130.152344 177.621094 L 208.40625 177.621094 L 208.40625 136.871094 L 266.429688 136.871094 L 266.429688 401.996094 L 225.691406 401.996094 L 225.691406 485.945312 L 416.695312 485.945312 L 416.695312 401.996094 L 375.957031 401.996094 L 375.957031 136.871094 L 433.980469 136.871094 L 433.980469 177.621094 L 512.238281 177.621094 Z M 512.238281 25.925781 " style=" fill-rule:nonzero;fill-opacity:1;" stroke="#FFFFFF" fill="#FFFFFF"/>
<path d="M 21.691406 437.648438 L 0.5 458.839844 L 53.660156 512 L 106.820312 458.839844 L 85.628906 437.648438 L 68.644531 454.636719 L 68.644531 57.363281 L 85.628906 74.351562 L 106.820312 53.160156 L 53.660156 0 L 0.5 53.160156 L 21.691406 74.351562 L 38.675781 57.363281 L 38.675781 454.636719 Z M 21.691406 437.648438 " style=" fill-rule:nonzero;fill-opacity:1;" stroke="#FFFFFF" fill="#FFFFFF"/>
</g>
</svg>
