<?xml version="1.0" encoding="iso-8859-1"?>
<!-- Generator: Adobe Illustrator 19.0.0, SVG Export Plug-In . SVG Version: 6.00 Build 0)  -->
<svg xmlns="http://www.w3.org/2000/svg" xmlns:xlink="http://www.w3.org/1999/xlink" version="1.1" id="Capa_1" x="0px" y="0px" viewBox="0 0 512 512" style="enable-background:new 0 0 512 512;" xml:space="preserve" width="512px" height="512px">
<g>
	<g>
		<path d="M436.863,435.995l-23.619,23.714l-21.367-21.281l23.61-23.705l-21.38-21.277l-42.198,42.346l-21.361-21.286l42.184-42.331    l-21.375-21.272l-23.659,23.752l-21.367-21.281l23.65-23.744l-21.379-21.276l-41.749,41.895l-21.361-21.286l41.735-41.881    l-21.376-21.273l-23.21,23.303l-21.366-21.281l23.201-23.294l-21.38-21.277l-41.789,41.934l-21.361-21.286l41.775-41.92    l-21.376-21.273l-23.25,23.342l-21.366-21.281l23.24-23.333l-21.38-21.277l-41.827,41.974l-21.361-21.286l41.814-41.96    L94.844,95.616l-23.289,23.381L50.188,97.716l23.28-23.372L0,1.228v509.544h512L436.863,435.995z M98.511,412.262V245.095    l167.973,167.167H98.511z" fill="#FFFFFF"/>
	</g>
</g>
<g>
</g>
<g>
</g>
<g>
</g>
<g>
</g>
<g>
</g>
<g>
</g>
<g>
</g>
<g>
</g>
<g>
</g>
<g>
</g>
<g>
</g>
<g>
</g>
<g>
</g>
<g>
</g>
<g>
</g>
</svg>
